<svg width="22" height="17" viewBox="0 0 22 17" fill="none" xmlns="http://www.w3.org/2000/svg">
<g clip-path="url(#clip0_813_17044)">
<rect y="0.5" width="22" height="16" rx="2" fill="#249F58"/>
<path fill-rule="evenodd" clip-rule="evenodd" d="M16.762 11.1663V10.0996H5.23821L7.33345 11.1663H13.6192C13.6192 11.7551 14.3232 12.2329 15.1906 12.2329C16.058 12.2329 16.762 11.7551 16.762 11.1663ZM9.14583 4.66602C9.13326 4.66602 9.1144 4.67242 9.09031 4.68735C9.03373 4.72575 8.92269 4.84415 8.9185 4.98068C8.91535 5.05855 8.90069 5.05855 8.94993 5.10868C8.98554 5.15988 9.02326 5.15562 9.0945 5.11615C9.1364 5.08415 9.15002 5.06602 9.16469 5.01375C9.18145 4.92842 9.07354 5.05642 9.05992 4.95828C9.03583 4.86868 9.10497 4.83028 9.16993 4.74495C9.17202 4.70228 9.17202 4.67028 9.14583 4.66815V4.66602ZM10.1966 4.67135C10.1756 4.67562 10.1515 4.70335 10.117 4.76522C10.0929 4.83135 9.98707 4.93162 10.0646 5.13855C10.1254 5.26975 10.1515 5.48202 10.1233 5.71988C10.0793 5.78708 10.0709 5.81055 10.0133 5.87775C9.93364 5.96628 9.84564 5.94388 9.78069 5.90975C9.71783 5.86708 9.66964 5.84575 9.64135 5.71135C9.64659 5.49802 9.65916 5.14388 9.6204 5.06922C9.56383 4.95402 9.46954 4.99455 9.42973 5.02975C9.23802 5.21108 9.14269 5.51295 9.08402 5.75508C9.03164 5.93002 8.97402 5.87882 8.93421 5.80842C8.83678 5.71455 8.82945 4.98708 8.71212 5.10762C8.52354 5.65588 8.82002 6.25642 9.0264 6.19775C9.17307 6.26175 9.26735 5.97375 9.32812 5.65908C9.37002 5.57055 9.40145 5.55988 9.4224 5.60575C9.41716 6.02388 9.45383 6.11775 9.55859 6.24362C9.79326 6.42922 9.98812 6.26708 10.0038 6.25215L10.1872 6.06655C10.2291 6.02388 10.2814 6.01962 10.3391 6.05802C10.3956 6.11135 10.3883 6.19988 10.5067 6.26068C10.6094 6.30335 10.8241 6.27135 10.8734 6.18282C10.9414 6.06548 10.9572 6.02495 10.9886 5.98015C11.0368 5.91615 11.1195 5.94495 11.1195 5.96522C11.1122 6.00255 11.064 6.03988 11.0965 6.10388C11.1541 6.14655 11.1677 6.11882 11.2013 6.10922C11.3207 6.05162 11.4108 5.78708 11.4108 5.78708C11.416 5.68895 11.3615 5.69642 11.327 5.71668C11.2798 5.74548 11.2777 5.75508 11.2327 5.78388C11.173 5.79242 11.0598 5.83188 11.0043 5.74335C10.9467 5.63668 10.9467 5.48948 10.9027 5.38068C10.9027 5.37428 10.8262 5.21322 10.8964 5.20362C10.931 5.21002 11.0085 5.23028 11.02 5.16522C11.0577 5.10122 10.9394 4.91988 10.8587 4.83028C10.7895 4.75242 10.6932 4.74282 10.5999 4.82175C10.5339 4.88362 10.5444 4.95188 10.5308 5.01695C10.5151 5.09162 10.5182 5.18442 10.5936 5.28362C10.6586 5.41375 10.777 5.58228 10.7372 5.81908C10.7372 5.81908 10.6691 5.93215 10.5486 5.91722C10.4962 5.90655 10.4145 5.88522 10.3705 5.55455C10.3391 5.30602 10.3789 4.95722 10.2762 4.79402C10.2521 4.73322 10.2322 4.67348 10.1987 4.67668L10.1966 4.67135ZM9.86345 4.69908C9.83202 4.70228 9.79745 4.73962 9.76916 4.81108C9.74507 4.86655 9.71469 5.15242 9.71992 5.15242C9.69897 5.23775 9.80688 5.27402 9.85612 5.16522C9.92945 4.96255 9.92945 4.87722 9.93364 4.79402C9.92316 4.73002 9.89488 4.69802 9.86345 4.70015V4.69908ZM11.0923 4.72042C11.0609 4.72468 11.0347 4.74388 11.0253 4.79295C11.0116 4.90602 11.019 4.96895 11.0378 5.06388C11.0514 5.12788 11.1426 5.23242 11.1866 5.29428C11.3993 5.58548 11.6056 5.87775 11.8026 6.17962C11.834 6.40575 11.855 6.62548 11.8707 6.84522C11.9042 7.32522 11.9126 7.92255 11.8843 8.42922C11.9723 8.43242 12.1148 8.28308 12.164 8.06655C12.1954 7.76362 12.1535 7.14922 12.1494 6.97002L12.1389 6.71615C12.3694 7.10015 12.5914 7.50548 12.8094 7.94922C12.89 7.91082 12.8722 7.45322 12.8261 7.38922C12.6501 7.00522 12.4071 6.62548 12.3306 6.47935C12.3023 6.42602 12.207 6.27988 12.0949 6.11028C12.0739 5.86708 12.0509 5.66228 12.0362 5.60042C11.9995 5.34442 12.1389 5.62922 12.12 5.48095C12.0739 5.22495 11.9356 5.05215 11.7722 4.81748C11.7198 4.74282 11.7198 4.72575 11.6392 4.83668C11.592 4.94868 11.592 5.04255 11.6077 5.13002C11.5847 5.09802 11.5585 5.06175 11.5208 5.01482L11.2536 4.78442C11.217 4.75775 11.1457 4.71722 11.0923 4.72042ZM14.7338 4.75988C14.7181 4.75775 14.7024 4.76522 14.6814 4.79402C14.6448 4.82602 14.606 4.88682 14.6081 4.96468C14.6154 5.09802 14.6395 5.23562 14.6479 5.37002L14.6584 5.42335C14.6437 5.40628 14.6312 5.39135 14.6238 5.38495C14.3651 5.10762 14.7422 5.33802 14.5735 5.12575C14.4321 4.96575 14.3902 4.91668 14.2697 4.82068C14.2069 4.78228 14.1713 4.70548 14.1514 4.83562C14.143 4.94975 14.1346 5.08308 14.1409 5.17908C14.1409 5.23242 14.1964 5.33375 14.2435 5.39242C14.4154 5.60895 14.5914 5.83828 14.7674 6.07722C14.8051 6.56468 14.8145 7.01162 14.8512 7.50015C14.847 7.70922 14.7841 7.98655 14.7254 8.01215C14.7254 8.01215 14.6333 8.06548 14.5725 8.00682C14.5274 7.98868 14.3504 7.70495 14.3504 7.70495C14.2593 7.61962 14.1985 7.64415 14.1346 7.70495C13.9565 7.87988 13.8748 8.20842 13.7543 8.43455C13.7229 8.48468 13.6359 8.52842 13.5385 8.43028C13.2902 8.08468 13.4337 7.59295 13.4044 7.71988C13.1844 7.97375 13.2808 8.39402 13.3311 8.48468C13.4044 8.63402 13.4631 8.73002 13.6034 8.80148C13.7344 8.89748 13.8339 8.83882 13.8905 8.76948C14.0204 8.63295 14.0225 8.28202 14.0833 8.21268C14.1252 8.08468 14.2331 8.10602 14.2854 8.16362C14.3378 8.23828 14.3965 8.28628 14.4709 8.32682C14.5924 8.43562 14.737 8.45482 14.8794 8.35562C14.9769 8.30015 15.0408 8.22762 15.0974 8.08468C15.1602 7.91828 15.1288 7.04362 15.1152 6.55722L15.3875 6.95828C15.4253 7.38495 15.4431 7.80628 15.4294 8.20948C15.4211 8.28948 15.705 7.97055 15.7018 7.81908C15.7018 7.68788 15.7039 7.56735 15.7018 7.45642C15.8412 7.68042 15.9742 7.90762 16.0999 8.13908C16.1785 8.09642 16.1523 7.64522 16.1031 7.58442C15.9711 7.35828 15.8014 7.11508 15.6704 6.92522C15.6442 6.68735 15.6096 6.40682 15.5929 6.32042C15.5688 6.18602 15.5436 5.98442 15.5059 5.82548C15.4954 5.76468 15.464 5.56628 15.4745 5.54815C15.4892 5.50228 15.5478 5.54815 15.5761 5.49695C15.618 5.44895 15.4274 4.94228 15.3299 4.79935C15.2954 4.73535 15.2314 4.75668 15.1539 4.86335C15.0806 4.93162 15.1078 5.08948 15.1351 5.23988C15.2063 5.62388 15.2713 6.01215 15.3215 6.40255C15.2273 6.25855 15.112 6.08575 14.9989 5.92042L14.9842 5.84575C14.9842 5.83722 14.9695 5.53108 14.9559 5.45855C14.9528 5.42868 14.9454 5.42015 14.9769 5.42442C15.0083 5.45215 15.0125 5.45322 15.0324 5.46282C15.0659 5.46708 15.0953 5.41162 15.0743 5.35935L14.7705 4.78975C14.76 4.77588 14.7454 4.76308 14.7286 4.76095L14.7338 4.75988ZM5.33669 4.77055C5.27907 4.76842 5.21831 4.80255 5.2424 4.87188C5.22773 4.90922 5.35135 5.03508 5.37335 5.10442C5.39116 5.15455 5.3524 5.31242 5.39431 5.32842C5.43097 5.34442 5.48231 5.21748 5.50116 5.10122C5.51164 5.03722 5.50431 4.81748 5.35764 4.77268C5.35031 4.77055 5.34297 4.77055 5.33459 4.76948L5.33669 4.77055ZM16.0434 4.77055C16.0297 4.77268 16.014 4.79188 15.991 4.84522C15.9334 4.94122 15.9134 5.11188 15.9365 5.26122C16.0727 6.21055 16.1774 7.13002 16.1984 7.97055C16.1858 8.05162 16.1816 8.09428 16.146 8.19455C16.0643 8.30122 15.9742 8.43348 15.8894 8.49748C15.8055 8.56148 15.6254 8.62335 15.5667 8.67028C15.3781 8.77908 15.3781 8.90495 15.529 8.91028C15.7888 8.87828 16.0968 8.85695 16.3084 8.53162C16.365 8.44095 16.432 8.19348 16.4341 8.04095C16.4551 7.15562 16.4236 6.28628 16.2927 5.64522C16.2843 5.58122 16.2571 5.43935 16.2675 5.42122C16.2833 5.37642 16.3681 5.42442 16.3985 5.37428C16.4435 5.32735 16.1785 4.98282 16.0863 4.83562C16.0674 4.79935 16.0549 4.76842 16.0402 4.77162L16.0434 4.77055ZM13.3164 4.78548C13.3059 4.78762 13.2913 4.80468 13.2619 4.84415C13.1886 5.08522 13.1634 5.28148 13.1917 5.43295C13.3803 6.42495 13.5689 7.32628 13.5395 8.27028C13.6275 8.27028 13.7302 8.06442 13.7742 7.85962C13.7983 7.57695 13.7574 7.40522 13.7512 7.24095C13.7438 7.07455 13.5668 5.73055 13.5312 5.60575C13.4872 5.36895 13.703 5.57375 13.6799 5.43722C13.6045 5.26228 13.418 5.01055 13.3614 4.85802C13.3405 4.81748 13.3363 4.78015 13.3195 4.78335L13.3164 4.78548ZM6.68078 4.80468C6.65983 4.80895 6.63573 4.82815 6.6284 4.85802C6.62316 4.87935 6.63678 4.91455 6.61793 4.92522C6.60745 4.93588 6.56764 4.92842 6.56973 4.87188C6.56973 4.85268 6.55612 4.83348 6.54878 4.82175C6.5404 4.81748 6.53516 4.81642 6.5205 4.81642C6.50269 4.81642 6.50269 4.82175 6.49326 4.83775C6.48907 4.85268 6.48278 4.86762 6.48278 4.88468C6.48069 4.90602 6.47231 4.91135 6.45869 4.91455C6.44193 4.91455 6.44507 4.91668 6.4325 4.90708C6.42202 4.89962 6.41364 4.89642 6.41364 4.88148C6.41364 4.86548 6.40945 4.83882 6.40526 4.83028C6.39793 4.81962 6.3864 4.81535 6.37383 4.81215C6.30469 4.81215 6.3005 4.89535 6.30364 4.92522C6.2984 4.93162 6.29631 5.07455 6.39059 5.11508C6.51631 5.17695 6.75516 5.15028 6.74678 4.94228C6.74678 4.92415 6.74154 4.86228 6.73945 4.84628C6.72688 4.81428 6.70278 4.80362 6.67973 4.80682L6.68078 4.80468ZM8.38421 4.80682C8.34021 4.80895 8.3004 4.82175 8.26897 4.83882C8.18516 4.92095 8.16421 5.05215 8.23126 5.13428C8.29412 5.16628 8.36012 5.23028 8.31716 5.26762C8.13488 5.46495 7.66031 5.79668 7.63621 5.85748V5.86388H7.6404V5.86602C7.6645 5.88202 7.96202 5.88202 7.9945 5.86602H7.99659C8.09926 5.82655 8.58326 5.26335 8.58326 5.26335C8.55812 5.24202 8.53507 5.22495 8.50993 5.20255C8.48269 5.17908 8.48583 5.15562 8.50993 5.13215C8.62935 5.06175 8.59164 4.90495 8.52878 4.83348C8.4764 4.81002 8.42821 4.80148 8.38421 4.80468V4.80682ZM12.8366 4.80682C12.824 4.81002 12.8083 4.82815 12.7842 4.88148C12.7266 4.97748 12.6878 5.14282 12.6931 5.29748C12.8167 6.17215 12.8544 6.93695 12.9361 7.81162C12.9424 7.89695 12.9298 8.01855 12.8754 8.06762C12.67 8.28522 12.3756 8.55188 12.0551 8.67562C12.0205 8.71508 12.141 8.88255 12.296 8.88255C12.5558 8.85055 12.7842 8.70335 12.9979 8.31188C13.0534 8.22122 13.153 8.02602 13.1551 7.87455C13.176 6.98708 13.1132 6.29588 12.9812 5.65588C12.9738 5.59188 12.9791 5.51722 12.9895 5.50015C13.0063 5.47882 13.0629 5.50015 13.0943 5.45002C13.1383 5.40308 12.9749 5.02015 12.8827 4.87402C12.8638 4.83668 12.8534 4.80682 12.8366 4.80788V4.80682ZM5.93907 4.83562C5.90345 4.83988 5.86993 4.86762 5.85316 4.91028C5.84793 5.04895 5.84688 5.18762 5.86364 5.31775C5.9265 5.54495 5.94431 5.74442 5.97469 5.97588C5.98516 6.28735 5.79869 6.11028 5.80707 5.95668C5.84897 5.75615 5.8385 5.44148 5.80078 5.36148C5.76935 5.28148 5.73583 5.26228 5.6625 5.27615C5.60488 5.27188 5.45507 5.43615 5.41316 5.71348C5.41316 5.71348 5.37754 5.85428 5.36288 5.98015C5.34193 6.12202 5.24973 6.22335 5.18478 5.96095C5.12926 5.76895 5.09573 5.29962 5.0025 5.40842C4.97526 5.77535 4.94383 6.42175 5.24973 6.48788C5.62059 6.52415 5.41526 5.85002 5.54935 5.72735C5.57554 5.66868 5.62269 5.66762 5.62583 5.74335V6.31615C5.62164 6.50175 5.74107 6.55722 5.83535 6.59562C5.93278 6.58815 5.99669 6.59135 6.0344 6.68735L6.08154 7.67935C6.08154 7.67935 6.30573 7.74335 6.31621 7.12148C6.32669 6.75562 6.24288 6.44948 6.29212 6.37802C6.29421 6.30762 6.38221 6.30335 6.44297 6.33855C6.5404 6.40788 6.58335 6.49322 6.73421 6.45908C6.96469 6.39508 7.10088 6.28202 7.10402 6.10282C7.09354 5.93215 7.07259 5.76148 6.99926 5.59082C7.00973 5.56095 6.95735 5.48095 6.96783 5.45002C7.00764 5.51402 7.0705 5.50975 7.08307 5.45002C7.04535 5.31882 6.98459 5.19402 6.88612 5.14068C6.80545 5.06602 6.68707 5.08202 6.64307 5.23348C6.62212 5.40842 6.70592 5.61535 6.83164 5.78495C6.85678 5.85108 6.8945 5.96095 6.87773 6.06015C6.81173 6.09855 6.74573 6.08148 6.68916 6.02282C6.68916 6.02282 6.50793 5.88415 6.50793 5.85215C6.55716 5.53748 6.5184 5.50015 6.49221 5.41482C6.47335 5.29322 6.41678 5.25482 6.37173 5.17162C6.32564 5.12148 6.26383 5.12148 6.23554 5.17162C6.15383 5.31348 6.19154 5.61962 6.25021 5.75508C6.29212 5.88095 6.35707 5.95988 6.32669 5.95988C6.30154 6.02922 6.24916 6.01322 6.21145 5.93108C6.15907 5.76042 6.1465 5.50868 6.1465 5.39455C6.13078 5.25375 6.11297 4.95188 6.02078 4.87508C5.99669 4.84095 5.9684 4.82922 5.94012 4.83242L5.93907 4.83562ZM7.24021 4.83562C7.2224 4.83988 7.20145 4.85055 7.17735 4.85695C7.09878 4.88148 7.02545 4.95082 7.0485 5.08522C7.14278 5.66122 7.2025 6.10175 7.29573 6.67775C7.30935 6.74602 7.25383 6.83455 7.18259 6.82708C7.06107 6.74175 7.03069 6.57108 6.82326 6.57962C6.6724 6.57962 6.50059 6.74815 6.47964 6.90815C6.4545 7.03615 6.44612 7.17482 6.47964 7.28575C6.5844 7.41375 6.71221 7.40095 6.82326 7.37108C6.9144 7.33375 6.99088 7.24308 7.02231 7.26442C7.04326 7.29962 7.02021 7.59935 6.59278 7.82975C6.32878 7.95135 6.11926 7.97908 6.00612 7.76148C5.93697 7.62495 6.0124 7.10442 5.84059 7.22388C5.33145 8.55935 7.03173 8.74495 7.22135 7.27935C7.23393 7.23668 7.27059 7.19615 7.29783 7.20682C7.30831 7.21215 7.31878 7.22815 7.32297 7.25802C7.28316 8.58495 6.00716 8.67668 5.79135 8.25855C5.73688 8.16042 5.72116 7.94068 5.71592 7.81055C5.70545 7.73055 5.68659 7.68468 5.66354 7.66655C5.61116 7.62708 5.54202 7.73055 5.52735 7.90868C5.5064 8.05268 5.51164 8.09215 5.51164 8.23082C5.58078 9.27935 7.2224 8.82815 7.48954 7.96415C7.62154 7.51615 7.4864 7.17802 7.53145 7.13642L7.53459 7.13428H7.53773L7.54297 7.13215C7.7064 7.31135 7.93478 7.15348 7.98507 7.09268C8.00602 7.06068 8.0605 7.03935 8.09821 7.08202C8.22393 7.17375 8.44812 7.13002 8.49421 6.96468C8.52145 6.80468 8.5445 6.64042 8.54973 6.46868C8.46593 6.49535 8.39888 6.51455 8.37164 6.54335C8.36535 6.55082 8.36116 6.55935 8.35907 6.56788L8.33812 6.70975C8.33812 6.71508 8.33602 6.71828 8.33393 6.72042C8.33078 6.72788 8.32345 6.73322 8.31926 6.73642C8.28993 6.75242 8.23859 6.74388 8.23545 6.70015C8.19669 6.51882 8.03431 6.49535 7.93583 6.77802C7.86983 6.83135 7.74726 6.84202 7.73678 6.76095C7.7525 6.57108 7.67707 6.54548 7.52726 6.63508L7.38269 5.52575C7.44554 5.52255 7.50212 5.56842 7.56078 5.49588C7.49793 5.29962 7.36697 4.90068 7.29259 4.86228H7.2905L7.28002 4.85162C7.28002 4.84948 7.27688 4.84842 7.27478 4.84735L7.27059 4.84095C7.2664 4.84095 7.26221 4.83882 7.26012 4.83775C7.25278 4.83562 7.2465 4.83562 7.23916 4.83562H7.24021ZM12.3128 4.83988C12.2478 4.83775 12.1766 4.87935 12.2038 4.96255C12.1871 5.00842 12.3432 5.16202 12.3683 5.24522C12.4134 5.37322 12.3337 5.49802 12.3809 5.51615C12.4249 5.53535 12.4856 5.38282 12.5066 5.24095C12.5338 5.12575 12.4542 4.89108 12.339 4.84308L12.3128 4.84095V4.83988ZM8.36012 4.97962C8.38945 4.97748 8.42507 5.00522 8.44393 5.04362C8.46174 5.08628 8.45231 5.12575 8.42297 5.13322C8.39154 5.14068 8.35173 5.11402 8.33288 5.07135C8.31402 5.02868 8.3224 4.98922 8.35383 4.98175H8.36012V4.97962ZM15.6903 5.17375C15.6306 5.17162 15.5646 5.21642 15.5918 5.30708C15.5772 5.35615 15.7175 5.52255 15.7416 5.61428C15.7626 5.67828 15.7102 5.88735 15.7521 5.90655C15.7919 5.92788 15.8464 5.76148 15.8674 5.60788C15.8799 5.52255 15.8192 5.22922 15.7154 5.17695C15.7081 5.17482 15.6997 5.17268 15.6914 5.17268L15.6903 5.17375ZM11.636 5.27615C11.6434 5.30068 11.6486 5.32522 11.6517 5.35082C11.6643 5.40415 11.6748 5.45748 11.6853 5.51295C11.6392 5.44682 11.6014 5.39348 11.5836 5.37428C11.4789 5.24628 11.5857 5.29108 11.636 5.27615ZM12.5715 5.74335C12.5485 5.74762 12.5265 5.76788 12.5192 5.79988C12.5129 5.81908 12.5275 5.85322 12.5087 5.86388C12.4982 5.87455 12.4563 5.86815 12.4594 5.81055C12.4594 5.79135 12.4458 5.77108 12.4385 5.76042C12.4301 5.75508 12.4249 5.75295 12.4102 5.75295C12.3924 5.75295 12.3924 5.75828 12.383 5.77428C12.3788 5.78922 12.3725 5.80415 12.3725 5.82228C12.3725 5.84362 12.3641 5.85002 12.3494 5.85428C12.3327 5.85428 12.3358 5.85428 12.3222 5.84682C12.3138 5.83615 12.3044 5.83402 12.3044 5.81908C12.3044 5.80308 12.3013 5.77855 12.296 5.76788C12.2887 5.75722 12.2782 5.75402 12.2646 5.74975C12.1965 5.74975 12.1913 5.83082 12.1954 5.86068C12.1913 5.86708 12.1881 6.01215 12.2824 6.05268C12.4102 6.11348 12.6491 6.08468 12.6386 5.87775C12.6386 5.85962 12.6334 5.79775 12.6323 5.78175C12.6187 5.74975 12.5946 5.73908 12.5726 5.74228L12.5715 5.74335ZM8.30773 5.78602C8.29307 5.78602 8.27212 5.79028 8.24802 5.80522C8.13593 5.86708 8.09297 6.05055 8.16421 6.15722C8.22707 6.25322 8.33183 6.21802 8.34545 6.21802C8.45545 6.23295 8.5204 6.00895 8.5204 6.00895C8.5204 6.00895 8.52354 5.94495 8.39469 6.06442C8.33811 6.07508 8.33183 6.05375 8.31716 6.02175C8.30459 5.96522 8.30669 5.90442 8.33288 5.84788C8.34545 5.81268 8.33288 5.79028 8.30773 5.78815V5.78602ZM14.3347 5.81482C14.2718 5.81162 14.2058 5.85322 14.188 5.93962C14.188 5.99082 14.2111 6.01855 14.2069 6.06548C14.2016 6.09215 14.1754 6.10815 14.1105 6.07828C14.121 6.06762 14.0686 5.99508 14.0686 5.99508C14.0194 5.96308 13.9534 5.99508 13.9094 6.02495C13.8853 6.06975 13.8674 6.14548 13.8947 6.22228C13.9659 6.35775 14.2121 6.58815 14.3294 6.59028C14.3315 6.46868 14.3431 6.30655 14.3504 6.20628C14.3525 6.16788 14.3609 6.12628 14.3975 6.11668C14.4332 6.10602 14.495 6.15295 14.495 6.11348C14.4887 6.03668 14.474 5.92148 14.4321 5.86815C14.4091 5.83615 14.3724 5.81695 14.3357 5.81482H14.3347ZM9.34488 6.23828L9.34173 6.24148C9.34173 6.24148 9.33964 6.24148 9.33859 6.24362C9.32602 6.25428 9.31135 6.27562 9.27888 6.29695C9.22335 6.36095 9.21392 6.40682 9.21602 6.53482C9.22021 6.54868 9.32078 6.83668 9.40773 7.03828C9.4664 7.24842 9.51983 7.48948 9.48107 7.71668C9.34488 8.01748 9.0725 8.28735 8.80745 8.43455C8.67126 8.47722 8.55602 8.46228 8.52459 8.43242C8.44707 8.37908 8.44602 8.28308 8.45126 8.26815V8.26495C8.67335 8.10708 8.92793 7.97908 9.12697 7.55348C9.18564 7.39028 9.2045 7.29215 9.14583 7.04148C9.12278 6.94548 9.09345 6.87082 9.03059 6.80255H9.03269C9.0704 6.78442 9.16888 6.85802 9.18459 6.81322C9.1605 6.69162 9.07983 6.53055 8.99078 6.44735C8.91116 6.37268 8.82316 6.36522 8.75192 6.43242C8.67021 6.47935 8.65345 6.64575 8.69221 6.79082C8.73621 6.89962 8.85459 6.91882 8.9384 7.13962C8.9405 7.15455 8.96669 7.30495 8.92478 7.36682C8.88916 7.47562 8.44812 7.82975 8.41669 7.85108L8.41354 7.85322L8.41145 7.85535H8.40935H8.40726V7.85215C8.40516 7.84362 8.40726 7.82015 8.40726 7.78495C8.40412 7.71882 8.43135 7.56842 8.42821 7.54175V7.53962C8.28154 7.63562 8.23231 7.92895 8.20612 8.01642C7.83631 8.27562 7.41726 8.46868 7.17526 8.73108C7.04954 8.93375 8.04269 8.50282 8.15793 8.45055L8.16107 8.45375C8.18412 8.47828 8.18516 8.56362 8.25116 8.64148C8.35592 8.78335 8.57383 8.87082 8.78754 8.81642C9.14583 8.68522 9.35326 8.43668 9.56278 8.16042C9.59212 8.11775 9.63926 8.08148 9.68326 8.11562C9.82678 8.44415 10.2437 8.67882 10.7812 8.70228C10.9069 8.54868 10.8472 8.47295 10.7969 8.44095C10.7812 8.43028 10.5297 8.33002 10.4899 8.23082C10.4658 8.13908 10.5255 8.05695 10.645 7.99615C10.9907 7.95348 11.3301 7.90548 11.6591 7.79775C11.6622 7.68468 11.7272 7.51722 11.7712 7.44362C11.8026 7.39348 11.8204 7.38815 11.8277 7.38175V7.37962H11.8298V7.37642V7.36575L11.7733 7.33162L10.6701 7.32735C10.6565 7.32202 10.6471 7.31668 10.6408 7.31135L10.6387 7.30815C10.6387 7.30815 10.6366 7.30815 10.6366 7.30602C10.6366 7.30388 10.6345 7.30388 10.6345 7.30388V7.30495V7.30282V7.30068V7.29855L10.6366 7.29535C10.6418 7.28895 10.6554 7.28148 10.6712 7.27402C10.9352 7.23882 11.4024 7.16095 11.4338 6.70335C11.4286 6.46442 11.3333 6.30868 11.0462 6.26602C10.8346 6.28202 10.6837 6.49002 10.7078 6.71828C10.6974 6.77908 10.7288 6.89962 10.6659 6.91348C10.2615 6.95188 9.81945 7.21002 9.80478 7.39562H9.80269H9.80059H9.7985C9.7985 7.39775 9.7964 7.39775 9.79535 7.39775H9.79116H9.78907H9.78488C9.75869 7.38922 9.72516 7.34442 9.7304 7.28362C9.71469 6.96362 9.61202 6.60095 9.45278 6.32362C9.39516 6.26495 9.36897 6.24148 9.35431 6.23828H9.35116H9.34802H9.34592H9.34488ZM10.4009 6.40682C10.3799 6.41108 10.3558 6.43028 10.3485 6.46228C10.3433 6.48362 10.359 6.51775 10.3401 6.52842C10.3296 6.53908 10.2877 6.53268 10.2898 6.47508C10.2898 6.45695 10.2762 6.43668 10.2689 6.42495C10.2605 6.41962 10.2553 6.41855 10.2416 6.41855C10.2238 6.41855 10.2228 6.42282 10.2134 6.43775C10.2081 6.45268 10.2029 6.46975 10.2029 6.48575C10.2008 6.50708 10.1924 6.51348 10.1788 6.51562C10.162 6.51562 10.1662 6.51882 10.1526 6.51028C10.1442 6.50175 10.1337 6.49748 10.1337 6.48255C10.1337 6.46655 10.1306 6.43988 10.1264 6.42922C10.1191 6.42175 10.1075 6.41855 10.095 6.41428C10.0248 6.41428 10.0216 6.49428 10.0248 6.52522C10.0195 6.53055 10.0164 6.67455 10.1107 6.71508C10.2364 6.77695 10.5402 6.74068 10.4669 6.54122C10.4669 6.52308 10.4616 6.46122 10.4606 6.44522C10.447 6.41322 10.4229 6.40255 10.3998 6.40575L10.4009 6.40682ZM14.6594 6.58495H14.649C14.649 6.58495 14.0602 7.01162 14.0466 7.02655C13.9879 7.07988 14.0173 7.26442 14.0466 7.24308C14.0885 7.25908 14.6804 6.85055 14.6689 6.80255C14.6951 6.80468 14.7076 6.59242 14.6584 6.58388L14.6594 6.58495ZM10.9572 6.64895C10.9802 6.64575 11.0116 6.65428 11.041 6.67028C11.086 6.69802 11.1143 6.73642 11.1091 6.76628V6.77055C11.107 6.77055 11.107 6.77055 11.107 6.77268V6.77482C11.107 6.77482 11.1049 6.77482 11.1049 6.77695C11.1049 6.77908 11.1017 6.78122 11.0996 6.78335C11.0787 6.80468 11.0305 6.80042 10.9844 6.77268C10.9404 6.74815 10.9142 6.70868 10.9163 6.68095V6.67775L10.9215 6.66708C10.9215 6.66708 10.9215 6.66495 10.9236 6.66388L10.9289 6.65748C10.9362 6.65215 10.9456 6.64682 10.9572 6.64682V6.64895ZM5.80497 6.75562C5.50116 6.76202 5.05383 7.16308 5.04231 7.38495L6.00612 6.91562C5.95373 6.83455 6.00297 6.76202 5.80497 6.75562ZM6.79288 6.89428C6.82221 6.89642 6.85364 6.91135 6.8704 6.95402C6.88507 6.99348 6.8704 7.03402 6.85259 7.05428V7.05748C6.83792 7.07455 6.79393 7.06815 6.76145 7.06815C6.72269 7.06602 6.70383 7.05962 6.68078 7.02762C6.66821 6.99028 6.70173 6.95508 6.71745 6.92948L6.72478 6.91882C6.73526 6.90815 6.75621 6.89962 6.77716 6.89748L6.79078 6.89535L6.79288 6.89428ZM14.5453 7.01908C14.4897 7.02548 14.4384 7.07775 14.4614 7.16095C14.4468 7.21002 14.5348 7.38175 14.5589 7.47242C14.5798 7.53642 14.5316 7.72095 14.5746 7.73908C14.6144 7.76042 14.7181 7.63242 14.715 7.46815C14.7254 7.38282 14.6856 7.07348 14.5819 7.02228C14.5694 7.01908 14.5568 7.01802 14.5442 7.01908H14.5453ZM7.96202 7.32202C7.91383 7.32522 7.87088 7.35082 7.89078 7.42015C7.88764 7.46922 8.02697 7.53002 8.03431 7.64415C8.05316 7.69322 8.00288 7.84682 8.04478 7.85962C8.0825 7.87562 8.13488 7.75295 8.15478 7.64202C8.16526 7.58015 8.10659 7.36468 8.00812 7.32522C7.9924 7.32095 7.97669 7.31988 7.96097 7.32095L7.96202 7.32202ZM9.93154 7.59508H9.94412C10.0677 7.62922 10.2479 7.63348 10.4051 7.64842C10.5339 7.65908 10.5968 7.75935 10.4784 7.80308C10.359 7.84362 10.2448 7.87775 10.2448 8.05055C10.2594 8.13588 10.2553 8.18068 10.2427 8.19988C10.2427 8.20308 10.2395 8.20522 10.2385 8.20628C10.2385 8.20628 10.2385 8.20842 10.2364 8.20842V8.21055H10.2333L10.2259 8.21375H10.2207C10.1924 8.21908 10.1515 8.19242 10.1212 8.17535C10.0478 8.12202 9.84354 7.99402 9.81421 7.71668C9.81002 7.65268 9.85611 7.59935 9.92945 7.59402L9.93154 7.59508ZM5.11878 7.80842C5.11145 7.80842 5.09783 7.83188 5.07688 7.85855C4.89459 8.15188 4.87783 8.59028 4.9784 8.72255C5.03078 8.78335 5.11878 8.81108 5.18373 8.79188C5.29897 8.74175 5.34821 8.50602 5.31993 8.42068C5.28326 8.35988 5.25288 8.35028 5.21516 8.40148C5.1345 8.56682 5.09993 8.45268 5.09469 8.35882C5.08212 8.18495 5.09888 8.02282 5.11773 7.89482C5.12821 7.83082 5.12821 7.80628 5.11773 7.80628L5.11878 7.80842ZM11.2966 8.19455C11.283 8.19455 11.2694 8.19668 11.2547 8.20522C11.2515 8.20522 11.1248 8.29055 11.0839 8.35242C11.0588 8.37162 11.063 8.38762 11.0693 8.42175C11.0881 8.46762 11.1216 8.45375 11.1614 8.43242C11.2138 8.42388 11.2379 8.45908 11.2348 8.52202C11.2107 8.60202 11.2453 8.63082 11.2453 8.63615C11.2453 8.64042 11.2945 8.68415 11.3532 8.65002C11.4757 8.60202 11.5522 8.55402 11.7251 8.51668C11.7701 8.51668 11.767 8.39295 11.6957 8.38868C11.6014 8.39295 11.5176 8.39935 11.4234 8.47402C11.3657 8.48682 11.3563 8.45055 11.3427 8.41855C11.328 8.33962 11.3762 8.28415 11.3657 8.22442C11.3678 8.22762 11.3364 8.19882 11.2955 8.19668L11.2966 8.19455ZM15.2524 8.34388L15.1686 8.35242C15.1309 8.35988 15.1183 8.37695 15.111 8.42388C15.1141 8.49322 15.156 8.49002 15.2 8.51775C15.2252 8.54975 15.2419 8.57962 15.1979 8.63508C15.156 8.67242 15.1277 8.69375 15.0858 8.73108C15.068 8.76522 15.0544 8.81642 15.1152 8.83348C15.2252 8.86548 15.4797 8.69695 15.4797 8.69482C15.5216 8.66282 15.507 8.60202 15.5038 8.60202C15.4787 8.57428 15.4242 8.59135 15.3886 8.58602C15.3708 8.58602 15.3153 8.57748 15.3404 8.52628C15.3634 8.49428 15.3718 8.47615 15.3875 8.43668C15.4033 8.39828 15.3875 8.37268 15.3268 8.35135C15.2954 8.34495 15.2744 8.34282 15.2503 8.34388H15.2524ZM13.7302 12.4612C14.0131 12.4751 14.2771 12.4644 14.5578 12.4783C14.6039 12.5167 14.5819 12.6063 14.5526 12.6212L14.5474 12.6233H14.5442H14.54L14.3033 12.6169V12.6031C14.2802 12.5369 14.1231 12.5412 14.0854 12.5924V12.5956C14.0833 12.5956 14.0822 12.5988 14.0822 12.5999L14.0801 12.6052V12.618C13.9544 12.634 13.8444 12.6137 13.7208 12.6095C13.6841 12.5636 13.6894 12.4815 13.7313 12.4601L13.7302 12.4612Z" fill="white"/>
</g>
<defs>
<clipPath id="clip0_813_17044">
<rect width="22" height="16" fill="white" transform="translate(0 0.5)"/>
</clipPath>
</defs>
</svg>
